# xmcd
#
# Track frame offsets:
#	150
#	13525
#	30777
#	50605
#	64680
#	80250
#	102447
#	114087
#	129365
#	143262
#	163382
#	175980
#
# Disc length: 2645 seconds
#
# Revision: 1
# Processed by: cddbd v1.4PL0 Copyright (c) Steve Scherf et al.
# Submitted via: audiograbber 1.80
#
DISCID=8b0a530c
DTITLE=Drummond Family - Old Favorites By The Drummonds
DYEAR=1900
DGENRE=
TTITLE0=Building On The Rock
TTITLE1=Man In The Middle
TTITLE2=Under Control
TTITLE3=Home
TTITLE4=The Lamb Arose
TTITLE5=Bowed On My Knees
TTITLE6=Born To Win
TTITLE7=Behold He Cometh
TTITLE8=I Know A Man
TTITLE9=Go Free
TTITLE10=I Am Blessed
TTITLE11=Thank You
EXTD=Gospel Music
EXTT0=
EXTT1=
EXTT2=
EXTT3=
EXTT4=
EXTT5=
EXTT6=
EXTT7=
EXTT8=
EXTT9=
EXTT10=
EXTT11=
PLAYORDER=
